# xmcd
#
# Track frame offsets:
#	150
#	17240
#	32676
#	44945
#	61595
#	73915
#	91162
#	104476
#	121755
#	142633
#	156504
#	170869
#	184830
#	198237
#	215823
#	228486
#	240974
#	253900
#	266209
#	286425
#
# Disc length: 4038 seconds
#
# Revision: 0
# Processed by: cddbd v1.5.2PL0 Copyright (c) Steve Scherf et al.
# Submitted via: EZCDAudioConverter 8.3.2.1
#
DISCID=300fc414
DTITLE=Παραδοσ. δημοτικά χορευτ. τραγούδια-κλαρ. Τ. Χαλκιάς
DYEAR=1900
DGENRE=Παραδοσιακή
TTITLE0=Άγνωστος - Τάξε μανούλα τάματα
TTITLE1=Άνευ ερμηνευτού - Σαμιώτισα
TTITLE2=Μηττάκη Γεωργία - Πέρασ' από την πόρτα σου
TTITLE3=Άνευ ερμηνευτού - Ένα καράβι από τη Χιό
TTITLE4=Άγνωστος - Δυό μαύρα μάτια
TTITLE5=Άνευ ερμηνευτού - Καραγκούνα
TTITLE6=Μηττάκη Γεωργία - Ιτιά
TTITLE7=Άνευ ερμηνευτού - Στην κεντημένη σου ποδιά
TTITLE8=Άγνωστος - Χορευτικό ποτ-πουρί
TTITLE9=Άγνωστος - Σαν πας πουλί μου στο Μοριά
TTITLE10=Άνευ ερμηνευτού - Στα Σάλωνα
TTITLE11=Άγνωστος - Βλάχα πάει για τη στάνη
TTITLE12=Άνευ ερμηνευτού - Γερακίνα
TTITLE13=Άγνωστος - Γρίβα μ' σε θέλει ο βασιλιάς
TTITLE14=Άνευ ερμηνευτού - Τρία παιδιά Βολιώτικα
TTITLE15=Άγνωστος - Μαντζουράνα
TTITLE16=Άνευ ερμηνευτού - Πω πω Μαρία
TTITLE17=Άγνωστος - Η Μαριορή παντρεύεται
TTITLE18=Άνευ ερμηνευτού - Αητός
TTITLE19=Άγνωστος - Εκεί στο γερο πλάτανο
EXTD=
EXTT0=
EXTT1=
EXTT2=
EXTT3=
EXTT4=
EXTT5=
EXTT6=
EXTT7=
EXTT8=
EXTT9=
EXTT10=
EXTT11=
EXTT12=
EXTT13=
EXTT14=
EXTT15=
EXTT16=
EXTT17=
EXTT18=
EXTT19=
PLAYORDER=
